<svg width="50" height="50" fill="none" xmlns="http://www.w3.org/2000/svg"><path d="M49.714 13.249 36.75.286a.977.977 0 0 0-1.381 0l-3.452 3.452a.977.977 0 0 0 0 1.381l4.1 4.1-3.882 3.883-5.976-5.976a.977.977 0 0 0-1.38 0l-3.966 3.966a.977.977 0 0 0 0 1.38l1.26 1.26L5.886 29.92a3.82 3.82 0 0 0 0 5.395l1.243 1.242-2.278 2.279a.976.976 0 0 0 0 1.38l1.775 1.777-6.341 6.34a.977.977 0 0 0 1.38 1.382l6.342-6.341 1.776 1.775a.977.977 0 0 0 1.381 0l2.279-2.278 1.242 1.242a3.79 3.79 0 0 0 2.698 1.118 3.79 3.79 0 0 0 2.697-1.118l16.186-16.186 1.26 1.26a.973.973 0 0 0 1.38 0l3.966-3.965a.976.976 0 0 0 0-1.382l-5.976-5.976 3.883-3.882 4.1 4.1a.972.972 0 0 0 .69.287c.25 0 .5-.095.691-.286l3.453-3.452a.976.976 0 0 0 0-1.381Zm-29.101 4.706 4.518 4.518a.973.973 0 0 0 1.381 0 .976.976 0 0 0 0-1.38l-4.518-4.519 1.46-1.46 8.408 8.407-4.467 4.466-8.407-8.407 1.625-1.625ZM10.475 43.077l-3.552-3.552 1.588-1.588 3.551 3.552-1.587 1.588Zm8.225-.346a1.864 1.864 0 0 1-2.633 0l-8.799-8.799a1.864 1.864 0 0 1 0-2.633l1.391-1.39 2.405 2.404a.974.974 0 0 0 1.381 0 .977.977 0 0 0 0-1.38l-2.405-2.406 1.608-1.607 4.518 4.518a.973.973 0 0 0 1.38 0 .977.977 0 0 0 0-1.38l-4.517-4.519 1.607-1.607 2.405 2.404a.973.973 0 0 0 1.38 0 .977.977 0 0 0 0-1.38l-2.404-2.405 1.59-1.59 8.407 8.407-6.35 6.351a.977.977 0 1 0 1.38 1.381l6.351-6.35 1.643 1.642L18.7 42.733Zm11.72-11.72-1.643-1.643 4.466-4.466 1.643 1.643-4.466 4.466Zm10.381-6.481-2.584 2.584-15.331-15.332 2.584-2.584L40.8 24.53Zm-5.285-8.047-1.999-2 3.883-3.882 1.999 1.999-3.883 3.883Zm10.055-.473L33.99 4.43l2.07-2.071L47.642 13.94l-2.07 2.071Z" fill="#F1CDB3"/><path d="M18.596 38.934a.963.963 0 0 0-.584-.711.987.987 0 0 0-.563-.056.987.987 0 0 0-.621.416.965.965 0 0 0-.146.351.961.961 0 0 0 .146.733.965.965 0 0 0 .811.435.961.961 0 0 0 .69-.287.943.943 0 0 0 .212-.316.954.954 0 0 0 .055-.565Z" fill="#F1CDB3"/></svg>