<svg width="50" height="50" viewBox="0 0 50 50" fill="none" xmlns="http://www.w3.org/2000/svg">
<path d="M45.8566 10.5929H40.0042V10.4246C40.0042 7.39722 37.5413 4.93432 34.5139 4.93432C31.4866 4.93432 29.0237 7.39722 29.0237 10.4246V10.5929H22.1505C19.8874 10.5929 18.0463 12.4341 18.0463 14.6971V19.3341H11.8911C10.4228 19.3341 9.1176 20.2135 8.56613 21.5745C8.55812 21.5944 8.5507 21.6146 8.54387 21.635L4.99298 32.3908C4.96076 32.4099 4.91964 32.4326 4.86847 32.4582C4.66544 32.5595 4.28566 32.714 3.63214 32.8737C2.5951 33.125 1.67283 33.718 1.01394 34.5573C0.355043 35.3966 -0.00211477 36.4333 9.42069e-06 37.5004V42.5823C9.42069e-06 44.2839 1.38429 45.6683 3.08585 45.6683L7.43937 45.6684C7.89904 48.1302 10.0624 50 12.6556 50C15.2487 50 17.412 48.1302 17.8718 45.6685L33.2256 45.6687C33.6854 48.1304 35.8487 50 38.4418 50C41.0347 50 43.198 48.1305 43.6579 45.6688L46.4226 45.6689C48.5389 45.6689 49.9608 44.247 49.9608 42.1307V16.7334C49.9608 11.1913 47.0906 10.5929 45.8566 10.5929ZM30.9768 10.4246C30.9768 8.47417 32.5635 6.88745 34.5139 6.88745C36.4643 6.88745 38.051 8.47417 38.051 10.4246V10.5929H30.9768V10.4246ZM10.3873 22.2816C10.5121 21.9861 10.7214 21.7341 10.9889 21.5572C11.2565 21.3803 11.5703 21.2864 11.891 21.2873H18.0462V32.3555H7.06144L10.3873 22.2816ZM12.6556 48.0469C10.8059 48.0469 9.301 46.5421 9.301 44.6923C9.301 44.6694 9.30227 44.6469 9.30275 44.624C9.30344 44.5892 9.30363 44.5542 9.30539 44.5195C9.30568 44.5141 9.30637 44.5087 9.30666 44.5032C9.4051 42.7412 10.8696 41.3377 12.6556 41.3377C14.2718 41.3377 15.6247 42.4868 15.9405 44.0108L15.9418 44.0167C15.9525 44.0684 15.9616 44.1205 15.9699 44.173L15.9714 44.1817C15.9773 44.2199 15.9816 44.2585 15.9861 44.2971C15.9881 44.3146 15.9909 44.3319 15.9927 44.3495C15.9957 44.3796 15.9974 44.4102 15.9996 44.4404C16.0016 44.4669 16.0043 44.4931 16.0057 44.5196C16.0071 44.547 16.0071 44.5747 16.0077 44.6022C16.0085 44.6322 16.01 44.662 16.01 44.6922C16.0102 46.5421 14.5053 48.0469 12.6556 48.0469ZM38.4418 48.0469C36.592 48.0469 35.0872 46.5421 35.0872 44.6923C35.0872 44.6486 35.0888 44.6053 35.0905 44.562C35.091 44.548 35.0909 44.5338 35.0916 44.5199C35.0932 44.4877 35.0963 44.456 35.0989 44.424C35.1008 44.3993 35.102 44.3743 35.1045 44.3497C35.1056 44.3392 35.1074 44.329 35.1084 44.3186C35.1198 44.2167 35.1351 44.1159 35.1554 44.017C35.156 44.0141 35.1568 44.0112 35.1575 44.0083C35.4742 42.4855 36.8263 41.3378 38.4418 41.3378C38.9042 41.3378 39.3451 41.4318 39.7462 41.6018C40.9499 42.1118 41.7962 43.3051 41.7962 44.6924C41.7962 46.5421 40.2915 48.0469 38.4418 48.0469ZM46.4226 43.7157L43.6594 43.7156C43.6562 43.6983 43.652 43.6813 43.6486 43.6641C43.6256 43.5493 43.5991 43.4352 43.5692 43.3221C43.5559 43.2726 43.5418 43.2233 43.5271 43.1742C43.5179 43.1437 43.5089 43.1132 43.4994 43.0829C43.483 43.0318 43.4657 42.9811 43.4477 42.9306C43.4381 42.9035 43.4291 42.8762 43.419 42.8493C43.3972 42.7911 43.3744 42.7333 43.3504 42.6759C43.3429 42.6577 43.3361 42.6392 43.3284 42.6211C43.2961 42.5452 43.2621 42.4702 43.2264 42.3959C43.2219 42.3866 43.217 42.3777 43.2126 42.3685C43.1814 42.3047 43.149 42.2415 43.1153 42.1789C43.1029 42.1559 43.0897 42.1336 43.077 42.1108C43.0502 42.0625 43.0226 42.0146 42.9943 41.9672C42.9789 41.9415 42.9628 41.9163 42.9469 41.8908C42.9034 41.8205 42.858 41.7514 42.8109 41.6835C42.7645 41.6163 42.7167 41.5502 42.6673 41.4851C42.6365 41.4448 42.6051 41.4049 42.5732 41.3654C42.5542 41.3419 42.5354 41.3183 42.516 41.295C42.4812 41.2536 42.4458 41.2128 42.4098 41.1725C42.392 41.1525 42.3748 41.1321 42.3567 41.1125C42.3119 41.0637 42.2661 41.0157 42.2195 40.9686C42.2094 40.9585 42.1999 40.9478 42.1897 40.9378C42.1321 40.8803 42.0733 40.8242 42.0131 40.7694C42.0004 40.7577 41.987 40.7467 41.974 40.735C41.9269 40.693 41.8793 40.6513 41.8306 40.6108C41.8093 40.5931 41.7874 40.5761 41.7658 40.5587C41.7246 40.5254 41.683 40.4926 41.6409 40.4604C41.6161 40.4417 41.591 40.4234 41.5659 40.4052C41.4597 40.3273 41.3506 40.2536 41.2388 40.1842C41.2115 40.1671 41.184 40.1502 41.1563 40.1336C41.113 40.1077 41.0693 40.0828 41.0253 40.0582C40.9982 40.0431 40.9712 40.0276 40.9439 40.013C40.8961 39.9873 40.8475 39.9628 40.7988 39.9386C40.7746 39.9265 40.7506 39.9139 40.7262 39.9022C40.6624 39.8718 40.598 39.8426 40.533 39.8147C40.523 39.8104 40.5132 39.8057 40.5032 39.8014C40.4276 39.7694 40.3513 39.7393 40.2743 39.7109C40.2523 39.7028 40.2299 39.6957 40.2078 39.6879C40.1525 39.6683 40.0971 39.6491 40.0411 39.6313C40.0117 39.6221 39.982 39.6137 39.9524 39.6049C39.9027 39.5901 39.8529 39.5756 39.8026 39.5622C39.7704 39.5536 39.7379 39.5458 39.7054 39.5378C39.6234 39.5176 39.5408 39.4994 39.4579 39.4832C39.4087 39.4737 39.3594 39.4648 39.31 39.4567C39.2761 39.4512 39.2422 39.4455 39.2082 39.4406C39.1568 39.4333 39.1053 39.4268 39.0538 39.421C39.021 39.4172 38.9884 39.4131 38.9555 39.41C38.8984 39.4047 38.8412 39.4003 38.7839 39.3969C38.7559 39.3951 38.7282 39.3926 38.7001 39.3912C38.614 39.387 38.5278 39.3848 38.4417 39.3847C38.355 39.3847 38.2689 39.3871 38.1833 39.3912C38.1551 39.3926 38.1273 39.3951 38.0993 39.3969C38.0419 39.4006 37.9847 39.4045 37.9279 39.41C37.8949 39.4132 37.8623 39.4173 37.8294 39.4211C37.7779 39.427 37.7264 39.4333 37.6753 39.4407C37.6412 39.4457 37.6071 39.4513 37.5731 39.4569C37.4897 39.4708 37.4066 39.4865 37.3239 39.5041C37.2753 39.5147 37.2268 39.5259 37.1785 39.5378C37.1457 39.5458 37.1129 39.5538 37.0804 39.5624C37.0306 39.5756 36.9813 39.5899 36.9321 39.6046C36.902 39.6136 36.8717 39.6221 36.8418 39.6315C36.7871 39.6491 36.7326 39.6675 36.6785 39.6869C36.6552 39.6951 36.6317 39.7026 36.6085 39.7112C36.5318 39.7395 36.4558 39.7694 36.3808 39.8012C36.3684 39.8064 36.3563 39.8123 36.3439 39.8177C36.2813 39.8447 36.2192 39.8725 36.1579 39.9018C36.132 39.9142 36.1067 39.9275 36.081 39.9403C36.0339 39.9639 35.9869 39.9875 35.9406 40.0123C35.912 40.0276 35.8837 40.0437 35.8554 40.0597C35.8128 40.0835 35.7705 40.1078 35.7285 40.1327C35.6297 40.192 35.5328 40.2543 35.4378 40.3194C35.3984 40.3467 35.3593 40.3745 35.3206 40.4029C35.2939 40.4224 35.2671 40.4417 35.2409 40.4616C35.2007 40.4921 35.1614 40.5234 35.1221 40.555C35.0985 40.574 35.0746 40.5926 35.0512 40.612C35.0061 40.6496 34.962 40.6884 34.9181 40.7273C34.9018 40.7418 34.8851 40.7558 34.869 40.7704C34.8097 40.8244 34.7517 40.8797 34.695 40.9363C34.6806 40.9506 34.667 40.9656 34.6528 40.9801C34.6107 41.023 34.5689 41.0663 34.5282 41.1107C34.5079 41.133 34.4882 41.1558 34.4683 41.1784C34.4348 41.2162 34.4015 41.2541 34.3691 41.2929C34.348 41.3181 34.3275 41.3438 34.3069 41.3695C34.2768 41.4068 34.2471 41.4443 34.218 41.4824C34.1483 41.5742 34.0814 41.6682 34.0175 41.7641C33.9909 41.8042 33.9651 41.8448 33.9396 41.8856C33.9221 41.9136 33.9044 41.9414 33.8876 41.9696C33.8612 42.0135 33.836 42.058 33.811 42.1027C33.7963 42.1288 33.7812 42.1546 33.7669 42.181C33.7369 42.2367 33.7083 42.2933 33.6802 42.3502C33.6723 42.3662 33.6638 42.3817 33.6561 42.3978C33.621 42.4709 33.5876 42.5447 33.5558 42.6192C33.5461 42.642 33.5375 42.6652 33.5281 42.6882C33.5065 42.7408 33.4852 42.7936 33.4653 42.8472C33.4542 42.877 33.4441 42.9073 33.4334 42.9373C33.4166 42.9848 33.4004 43.0325 33.3849 43.0804C33.3745 43.113 33.3648 43.146 33.3549 43.1789C33.3309 43.2592 33.3089 43.34 33.2888 43.4214C33.2772 43.4683 33.2664 43.5156 33.256 43.5632C33.2485 43.5976 33.2411 43.6321 33.2342 43.6668C33.231 43.6832 33.227 43.6993 33.224 43.7157L17.873 43.7154C17.8698 43.6985 17.8658 43.6818 17.8624 43.6649C17.8559 43.6315 17.8487 43.5984 17.8415 43.5653C17.8132 43.4346 17.7798 43.305 17.7414 43.1768C17.732 43.145 17.7225 43.1132 17.7124 43.0815C17.6966 43.0325 17.6801 42.9837 17.6628 42.9352C17.6526 42.906 17.6427 42.8768 17.632 42.8478C17.6116 42.7935 17.5903 42.7396 17.568 42.686C17.559 42.664 17.5506 42.6415 17.5412 42.6196C17.5094 42.5449 17.4759 42.4708 17.4407 42.3977C17.4335 42.3829 17.4257 42.3686 17.4185 42.354C17.39 42.2957 17.3603 42.2379 17.3296 42.1808C17.3158 42.155 17.3009 42.1297 17.2866 42.1042C17.2612 42.059 17.2357 42.0139 17.209 41.9695C17.1922 41.9415 17.1747 41.9141 17.1575 41.8864C17.1319 41.8453 17.1057 41.8045 17.079 41.7641C17.0151 41.6683 16.9483 41.5745 16.8786 41.4827C16.8496 41.4446 16.82 41.4071 16.7899 41.3699C16.7692 41.3442 16.7486 41.3183 16.7275 41.2931C16.695 41.2546 16.6621 41.2166 16.6286 41.179C16.6085 41.1563 16.5888 41.1333 16.5684 41.1109C16.5282 41.067 16.4867 41.0241 16.445 40.9815C16.4304 40.9666 16.4164 40.9512 16.4016 40.9365C16.3449 40.88 16.287 40.8248 16.2279 40.7709C16.2115 40.7558 16.1943 40.7417 16.1777 40.7268C16.1343 40.688 16.0903 40.6499 16.0456 40.6125C16.022 40.5929 15.9978 40.574 15.9739 40.5548C15.935 40.5235 15.8959 40.4924 15.8561 40.4622C15.8296 40.4421 15.8027 40.4226 15.7758 40.403C15.7373 40.3748 15.6984 40.3471 15.6591 40.3199C15.5919 40.2738 15.5237 40.2291 15.4545 40.186C15.4258 40.168 15.397 40.1503 15.3679 40.1329C15.3262 40.1081 15.2841 40.0839 15.2417 40.0602C15.2132 40.0442 15.1848 40.028 15.1559 40.0126C15.1098 39.9881 15.0633 39.9642 15.0165 39.9411C14.9906 39.9281 14.9649 39.9146 14.9386 39.902C14.878 39.8732 14.8168 39.8455 14.7552 39.8189C14.742 39.8132 14.7291 39.8069 14.7158 39.8013C14.6407 39.7696 14.5649 39.7396 14.4884 39.7114C14.4649 39.7027 14.4409 39.6951 14.4172 39.6867C14.3635 39.6675 14.3094 39.6492 14.2551 39.6317C14.225 39.6222 14.1945 39.6136 14.1641 39.6046C14.1151 39.5899 14.0659 39.5759 14.0165 39.5626C13.9838 39.5539 13.9509 39.5459 13.918 39.5379C13.7877 39.5056 13.6561 39.4786 13.5237 39.457C13.4897 39.4515 13.4557 39.4458 13.4214 39.4408C13.3701 39.4335 13.3187 39.427 13.2672 39.4212C13.2345 39.4174 13.2019 39.4133 13.169 39.41C13.1118 39.4048 13.0546 39.4004 12.9974 39.397C12.9694 39.3952 12.9416 39.3927 12.9135 39.3913C12.8274 39.387 12.7413 39.3849 12.6551 39.3848C12.5685 39.3848 12.4824 39.3872 12.3967 39.3913C12.3686 39.3927 12.3407 39.3952 12.3127 39.397C12.2554 39.4007 12.1982 39.4046 12.1413 39.41C12.1083 39.4133 12.0756 39.4174 12.0428 39.4212C11.9914 39.427 11.9401 39.4335 11.8889 39.4408C11.8545 39.4458 11.8204 39.4515 11.7864 39.457C11.7029 39.4707 11.6199 39.4864 11.5372 39.5042C11.4888 39.5146 11.4406 39.5259 11.3926 39.5377C11.3595 39.5458 11.3263 39.5539 11.2935 39.5626C11.2445 39.5758 11.1956 39.5897 11.147 39.6043C11.1163 39.6134 11.0855 39.6222 11.055 39.6317C11.0013 39.6487 10.9482 39.6673 10.8951 39.6859C10.8706 39.6945 10.8459 39.7024 10.8216 39.7114C10.7452 39.7396 10.6697 39.7693 10.595 39.8009C10.5799 39.8073 10.5652 39.8144 10.5501 39.821C10.4905 39.8469 10.4311 39.8734 10.3725 39.9015C10.3451 39.9145 10.3184 39.9286 10.2912 39.9422C10.2456 39.9648 10.2003 39.988 10.1553 40.0119C10.1256 40.0278 10.0964 40.0445 10.067 40.061C10.0256 40.0843 9.9843 40.1077 9.94357 40.1321C9.87392 40.1738 9.80519 40.2171 9.73742 40.2618C9.70813 40.2811 9.67902 40.3007 9.65012 40.3206C9.61184 40.347 9.57414 40.374 9.53654 40.4014C9.50871 40.4217 9.48068 40.4419 9.45324 40.4628C9.41486 40.492 9.37717 40.522 9.33957 40.5521C9.31428 40.5724 9.28869 40.5923 9.26389 40.6131C9.2216 40.6482 9.18039 40.6846 9.13928 40.721C9.12014 40.7379 9.10061 40.7543 9.08166 40.7715C9.02315 40.8249 8.96581 40.8795 8.90969 40.9354C8.8923 40.9528 8.8757 40.971 8.85851 40.9886C8.81955 41.0285 8.78078 41.0685 8.74309 41.1097C8.72111 41.1336 8.70002 41.1583 8.67853 41.1826C8.6467 41.2186 8.61496 41.2547 8.5842 41.2916C8.56193 41.3181 8.54025 41.3453 8.51857 41.3724C8.48969 41.4082 8.46127 41.4443 8.43332 41.4809C8.38422 41.5454 8.33659 41.611 8.29045 41.6777C8.27017 41.7069 8.25018 41.7363 8.23049 41.7658C8.2048 41.8045 8.18 41.8436 8.15529 41.8829C8.13693 41.9122 8.11847 41.9413 8.1007 41.971C8.07541 42.0131 8.05129 42.0558 8.02717 42.0986C8.01154 42.1265 7.99543 42.154 7.98019 42.1821C7.95206 42.2348 7.92481 42.2879 7.89846 42.3415C7.88889 42.3606 7.87873 42.3794 7.86945 42.3987C7.83469 42.471 7.80158 42.5441 7.77004 42.6182C7.7593 42.6433 7.74973 42.669 7.73937 42.6944C7.71887 42.7447 7.69845 42.795 7.67951 42.846C7.66789 42.8771 7.65734 42.9087 7.64631 42.9401C7.6301 42.9863 7.61408 43.0325 7.59914 43.0792C7.5884 43.1127 7.57843 43.1465 7.56838 43.1803C7.5548 43.2259 7.54162 43.2716 7.52922 43.3177C7.50748 43.3985 7.48778 43.4798 7.47013 43.5616C7.46252 43.5968 7.4549 43.6318 7.44797 43.6673C7.44484 43.6833 7.44094 43.6991 7.43791 43.7151H3.08585C2.46124 43.7151 1.95314 43.207 1.95314 42.5823V37.5004C1.95183 36.8709 2.16247 36.2594 2.55112 35.7643C2.93977 35.2692 3.48379 34.9194 4.09552 34.7712C4.65207 34.6351 5.13009 34.4801 5.52043 34.3088H40.9884C41.5277 34.3088 41.965 33.8716 41.965 33.3322C41.965 32.7929 41.5277 32.3556 40.9884 32.3556H19.9994V14.6971C19.9994 13.5111 20.9645 12.5461 22.1505 12.5461H45.8565C47.7282 12.5461 48.0076 15.1695 48.0076 16.7334V42.1307C48.0076 43.5099 47.0145 43.7157 46.4226 43.7157Z" fill="#F1CDB3"/>
<path d="M42.0506 20.679C42.0507 19.3969 41.1502 18.3219 39.9487 18.0513C39.9551 17.9838 39.9602 17.9161 39.9622 17.8474C39.9845 17.0528 39.6877 16.2973 39.1264 15.7201C38.5556 15.133 37.7585 14.7964 36.9391 14.7964C35.9491 14.7964 35.0673 15.2782 34.5153 16.02C33.9636 15.2782 33.0811 14.7964 32.0888 14.7964C31.2768 14.7964 30.4851 15.1286 29.9169 15.7081C29.3525 16.2835 29.0502 17.0403 29.0656 17.8387C29.067 17.9103 29.0718 17.9811 29.0782 18.0515C27.8772 18.3225 26.9773 19.3972 26.9773 20.679C26.9773 21.7636 27.622 22.7 28.548 23.1266C27.8957 23.9338 27.515 24.9553 27.515 26.0353C27.515 28.5857 29.5899 30.6606 32.1403 30.6606C32.9803 30.6606 33.8005 30.431 34.5139 30.0043C35.2313 30.4335 36.0516 30.6603 36.8876 30.6606C39.438 30.6606 41.5129 28.5857 41.5129 26.0353C41.5129 24.9552 41.1322 23.9338 40.4799 23.1266C41.4059 22.7 42.0506 21.7636 42.0506 20.679ZM36.9391 16.7496C37.2341 16.7496 37.521 16.8706 37.7261 17.0816C37.9165 17.2774 38.0172 17.5297 38.0098 17.7923C37.9929 18.3911 37.5076 18.8835 36.9278 18.8902C36.7724 18.89 36.6189 18.8566 36.4775 18.7921C36.46 18.784 36.4428 18.7753 36.4253 18.7674C36.3363 18.7205 36.2548 18.6606 36.1835 18.5898C35.9795 18.3873 35.8677 18.1154 35.8689 17.8238C35.8713 17.2315 36.3514 16.7496 36.9391 16.7496ZM31.3111 17.0758C31.4122 16.9721 31.5332 16.8898 31.6668 16.8337C31.8004 16.7777 31.9439 16.7491 32.0887 16.7495C32.6782 16.7495 33.1583 17.2302 33.1589 17.8209C33.1597 17.9649 33.1315 18.1076 33.0761 18.2405C33.0207 18.3733 32.9392 18.4938 32.8364 18.5946C32.7666 18.6633 32.6874 18.7217 32.6011 18.7681C32.5692 18.7826 32.538 18.7981 32.5065 18.8132C32.3792 18.8658 32.2426 18.892 32.1048 18.8903C31.5171 18.8806 31.0296 18.392 31.0182 17.8011C31.0129 17.5312 31.1171 17.2738 31.3111 17.0758ZM28.9304 20.679C28.9303 20.2705 29.2628 19.9381 29.6712 19.9381C30.0797 19.9381 30.4121 20.2705 30.4121 20.679C30.4121 20.7629 30.3974 20.8432 30.3716 20.9185C30.3472 20.9676 30.3237 21.0172 30.301 21.0673C30.1704 21.2785 29.9373 21.4199 29.6712 21.4199C29.2628 21.4199 28.9304 21.0875 28.9304 20.679ZM36.8876 28.7077C36.25 28.7074 35.6336 28.4792 35.1497 28.0641C34.9728 27.9121 34.7472 27.8286 34.5139 27.8289C34.2807 27.8287 34.0551 27.9122 33.8782 28.0641C33.3942 28.4792 32.7778 28.7074 32.1403 28.7077C30.6669 28.7077 29.4681 27.5089 29.4681 26.0355C29.4681 24.9186 30.1723 23.9099 31.2204 23.5256C31.3923 23.4626 31.543 23.3525 31.6554 23.208C31.7677 23.0634 31.8371 22.8901 31.8557 22.708C31.8831 22.4394 31.9509 22.1765 32.0569 21.9283C32.0917 21.8622 32.1243 21.7948 32.1536 21.7256C32.4127 21.2376 32.8172 20.8424 33.3111 20.5947C33.3536 20.576 33.3956 20.5564 33.4372 20.5357C33.7767 20.3873 34.1434 20.311 34.5139 20.3115C34.8957 20.3115 35.2592 20.3911 35.5886 20.5348C35.6302 20.5554 35.6722 20.5749 35.7147 20.5936C36.2095 20.8412 36.6149 21.2369 36.8743 21.7256C36.9036 21.7948 36.9362 21.8622 36.971 21.9283C37.0769 22.1765 37.1448 22.4394 37.1721 22.708C37.1907 22.8901 37.2602 23.0634 37.3725 23.208C37.4848 23.3525 37.6356 23.4626 37.8075 23.5256C38.8555 23.91 39.5597 24.9186 39.5597 26.0355C39.5597 27.5088 38.361 28.7077 36.8876 28.7077ZM39.3567 21.4199C39.0907 21.4199 38.8576 21.2785 38.7269 21.0673C38.7043 21.0173 38.6807 20.9677 38.6563 20.9185C38.6297 20.8415 38.616 20.7606 38.6159 20.679C38.6159 20.2705 38.9482 19.9381 39.3568 19.9381C39.7653 19.9381 40.0976 20.2705 40.0976 20.679C40.0975 21.0874 39.7652 21.4199 39.3567 21.4199Z" fill="#F1CDB3"/>
<path d="M45.869 33.1465C45.8565 33.084 45.8379 33.0228 45.8135 32.9639C45.7892 32.9048 45.7591 32.8482 45.7236 32.795C45.6885 32.7415 45.6479 32.6917 45.6025 32.6465C45.5573 32.6012 45.5076 32.5606 45.4541 32.5254C45.3474 32.4548 45.228 32.4054 45.1025 32.3799C44.9769 32.3545 44.8474 32.3545 44.7217 32.3799C44.6592 32.3927 44.5977 32.4112 44.5381 32.4356C44.4795 32.46 44.4228 32.4904 44.3701 32.5254C44.3164 32.5606 44.2666 32.6016 44.2217 32.6465C44.1767 32.6914 44.1356 32.7412 44.0996 32.795C44.0644 32.8477 44.0341 32.9043 44.0107 32.9639C43.9863 33.0225 43.9668 33.084 43.9551 33.1465C43.9424 33.209 43.9355 33.2735 43.9355 33.3369C43.9355 33.4003 43.9424 33.4649 43.9551 33.5284C43.9668 33.5899 43.9863 33.6514 44.0107 33.711C44.0352 33.7696 44.0654 33.8262 44.1006 33.8789C44.1356 33.9327 44.1767 33.9825 44.2217 34.0274C44.2666 34.0723 44.3164 34.1133 44.3701 34.1495C44.4228 34.1846 44.4795 34.2139 44.5381 34.2383C44.5977 34.2627 44.6592 34.2823 44.7217 34.294C44.7843 34.3067 44.8487 34.3135 44.9121 34.3135C44.9756 34.3135 45.0401 34.3067 45.1025 34.294C45.165 34.2823 45.2266 34.2627 45.2852 34.2383C45.3447 34.2139 45.4014 34.1846 45.4541 34.1495C45.5079 34.1133 45.5577 34.0723 45.6025 34.0274C45.6475 33.9825 45.6885 33.9327 45.7236 33.8789C45.7587 33.8262 45.7891 33.7696 45.8135 33.711C45.8379 33.6514 45.8563 33.5899 45.869 33.5284C45.8818 33.4649 45.8886 33.4003 45.8886 33.3369C45.8886 33.2735 45.8818 33.209 45.869 33.1465Z" fill="#F1CDB3"/>
<path d="M34.5139 0C33.9747 0 33.5374 0.437208 33.5374 0.976564V2.61133C33.5374 3.15069 33.9747 3.58789 34.5139 3.58789C35.0533 3.58789 35.4905 3.15059 35.4905 2.61133V0.976564C35.4905 0.437208 35.0533 0 34.5139 0Z" fill="#F1CDB3"/>
<path d="M30.3998 3.79716L29.0367 2.72695C28.9358 2.64775 28.8204 2.58919 28.6969 2.55463C28.5734 2.52006 28.4443 2.51015 28.3169 2.52548C28.1896 2.5408 28.0665 2.58106 27.9548 2.64395C27.843 2.70683 27.7447 2.79112 27.6655 2.89199C27.3325 3.31621 27.4064 3.93007 27.8306 4.26308L29.1936 5.3333C29.3653 5.46852 29.5775 5.54196 29.7961 5.5418C29.9442 5.542 30.0903 5.50848 30.2235 5.44378C30.3567 5.37907 30.4735 5.28489 30.5648 5.16836C30.8979 4.74404 30.824 4.13017 30.3998 3.79716Z" fill="#F1CDB3"/>
<path d="M41.3624 2.89185C41.0294 2.46763 40.4156 2.3937 39.9912 2.72681L38.6281 3.79702C38.2039 4.13003 38.13 4.7439 38.4631 5.16822C38.5544 5.28482 38.6711 5.37906 38.8043 5.44379C38.9375 5.50852 39.0837 5.54202 39.2318 5.54175C39.4504 5.5419 39.6626 5.46846 39.8343 5.33326L41.1974 4.26304C41.6216 3.93003 41.6955 3.31616 41.3624 2.89185Z" fill="#F1CDB3"/>
</svg>
